<svg xmlns="http://www.w3.org/2000/svg" width="1200" height="520" viewBox="0 0 1200 520">
<rect width="100%" height="100%" fill="#fbfaf7"/>
<style>
text { font-family: "Noto Sans CJK SC", "Microsoft YaHei", "PingFang SC", Arial, sans-serif; fill: #263238; }
.title { font-size: 24px; font-weight: 700; }
.subtitle { font-size: 13px; fill: #607d72; }
.axis { stroke: #607d72; stroke-width: 1; }
.grid { stroke: #d8ded8; stroke-width: 1; stroke-dasharray: 3 4; }
.label { font-size: 12px; }
.small { font-size: 10px; fill: #607d72; }
.note { font-size: 11px; fill: #789087; }
</style>

<text x="48" y="48" class="title">阻隔强度热力图 Barrier Index</text>
<text x="48" y="72" class="subtitle">1-5 定性评分；总分 = physical + traffic + visual + perceived safety。Preliminary observation.</text>
<line x1="90" y1="305" x2="1072" y2="305" class="axis"/><rect x="90" y="155" width="190" height="90" fill="rgb(238,207,142)" rx="5"/><text x="104" y="189" class="label" font-weight="700">S1  14/20</text><text x="104" y="212" class="small">0-100 m</text><rect x="102" y="233" width="28" height="40" fill="#4f6f64" opacity="0.75"/><rect x="144" y="233" width="28" height="40" fill="#4f6f64" opacity="0.75"/><rect x="186" y="243" width="28" height="30" fill="#4f6f64" opacity="0.75"/><rect x="228" y="243" width="28" height="30" fill="#4f6f64" opacity="0.75"/><text x="185.0" y="333" text-anchor="middle" class="small">Piazza</text><text x="185.0" y="348" text-anchor="middle" class="small">dell&#x27;Emporio /</text><text x="185.0" y="363" text-anchor="middle" class="small">Ponte Sublicio</text><rect x="288" y="155" width="190" height="90" fill="rgb(216,153,103)" rx="5"/><text x="302" y="189" class="label" font-weight="700">S2  17/20</text><text x="302" y="212" class="small">100-200 m</text><rect x="300" y="223" width="28" height="50" fill="#4f6f64" opacity="0.75"/><rect x="342" y="233" width="28" height="40" fill="#4f6f64" opacity="0.75"/><rect x="384" y="233" width="28" height="40" fill="#4f6f64" opacity="0.75"/><rect x="426" y="233" width="28" height="40" fill="#4f6f64" opacity="0.75"/><text x="383.0" y="333" text-anchor="middle" class="small">Emporium 可见遗迹 /</text><text x="383.0" y="348" text-anchor="middle" class="small">Lungotevere 11</text><rect x="486" y="155" width="190" height="90" fill="rgb(238,207,142)" rx="5"/><text x="500" y="189" class="label" font-weight="700">S3  14/20</text><text x="500" y="212" class="small">200-300 m</text><rect x="498" y="233" width="28" height="40" fill="#4f6f64" opacity="0.75"/><rect x="540" y="243" width="28" height="30" fill="#4f6f64" opacity="0.75"/><rect x="582" y="233" width="28" height="40" fill="#4f6f64" opacity="0.75"/><rect x="624" y="243" width="28" height="30" fill="#4f6f64" opacity="0.75"/><text x="581.0" y="333" text-anchor="middle" class="small">Via Franklin 横向联系</text><rect x="684" y="155" width="190" height="90" fill="rgb(229,222,181)" rx="5"/><text x="698" y="189" class="label" font-weight="700">S4  12/20</text><text x="698" y="212" class="small">300-400 m</text><rect x="696" y="243" width="28" height="30" fill="#4f6f64" opacity="0.75"/><rect x="738" y="243" width="28" height="30" fill="#4f6f64" opacity="0.75"/><rect x="780" y="243" width="28" height="30" fill="#4f6f64" opacity="0.75"/><rect x="822" y="243" width="28" height="30" fill="#4f6f64" opacity="0.75"/><text x="779.0" y="333" text-anchor="middle" class="small">Via Rubattino /</text><text x="779.0" y="348" text-anchor="middle" class="small">Via Branca 遗迹联系</text><rect x="882" y="155" width="190" height="90" fill="rgb(229,176,112)" rx="5"/><text x="896" y="189" class="label" font-weight="700">S5  16/20</text><text x="896" y="212" class="small">400-500 m</text><rect x="894" y="233" width="28" height="40" fill="#4f6f64" opacity="0.75"/><rect x="936" y="223" width="28" height="50" fill="#4f6f64" opacity="0.75"/><rect x="978" y="243" width="28" height="30" fill="#4f6f64" opacity="0.75"/><rect x="1020" y="233" width="28" height="40" fill="#4f6f64" opacity="0.75"/><text x="977.0" y="333" text-anchor="middle" class="small">Ponte Testaccio /</text><text x="977.0" y="348" text-anchor="middle" class="small">Largo G. B. Marzi</text><rect x="90" y="420" width="26" height="18" fill="rgb(220,237,220)"/><rect x="116" y="420" width="26" height="18" fill="rgb(224,229,200)"/><rect x="142" y="420" width="26" height="18" fill="rgb(229,222,181)"/><rect x="168" y="420" width="26" height="18" fill="rgb(233,214,161)"/><rect x="194" y="420" width="26" height="18" fill="rgb(238,207,142)"/><rect x="220" y="420" width="26" height="18" fill="rgb(242,199,122)"/><rect x="246" y="420" width="26" height="18" fill="rgb(229,176,112)"/><rect x="272" y="420" width="26" height="18" fill="rgb(216,153,103)"/><rect x="298" y="420" width="26" height="18" fill="rgb(204,130,93)"/><rect x="324" y="420" width="26" height="18" fill="rgb(191,107,84)"/><rect x="350" y="420" width="26" height="18" fill="rgb(178,84,74)"/><text x="90" y="458" class="small">低阻隔</text><text x="330" y="458" class="small">高阻隔</text><text x="760" y="442" class="note">柱状小条从左到右：物理 / 交通 / 视觉 / 心理安全</text>
</svg>
