<svg xmlns="http://www.w3.org/2000/svg" width="1180" height="620" viewBox="0 0 1180 620">
<rect width="100%" height="100%" fill="#fbfaf7"/>
<style>
text { font-family: "Noto Sans CJK SC", "Microsoft YaHei", "PingFang SC", Arial, sans-serif; fill: #263238; }
.title { font-size: 24px; font-weight: 700; }
.subtitle { font-size: 13px; fill: #607d72; }
.axis { stroke: #607d72; stroke-width: 1; }
.grid { stroke: #d8ded8; stroke-width: 1; stroke-dasharray: 3 4; }
.label { font-size: 12px; }
.small { font-size: 10px; fill: #607d72; }
.note { font-size: 11px; fill: #789087; }
</style>

<text x="48" y="48" class="title">热暴露与硬化压力评分</text>
<text x="48" y="72" class="subtitle">heat = impervious*0.4 + lack_of_shade*0.4 + low_vegetation*0.2；定性 1-5 分。</text>
<line x1="100" y1="470.0" x2="1050" y2="470.0" class="grid"/><text x="86" y="474.0" text-anchor="end" class="small">0</text><line x1="100" y1="408.0" x2="1050" y2="408.0" class="grid"/><text x="86" y="412.0" text-anchor="end" class="small">1</text><line x1="100" y1="346.0" x2="1050" y2="346.0" class="grid"/><text x="86" y="350.0" text-anchor="end" class="small">2</text><line x1="100" y1="284.0" x2="1050" y2="284.0" class="grid"/><text x="86" y="288.0" text-anchor="end" class="small">3</text><line x1="100" y1="222.0" x2="1050" y2="222.0" class="grid"/><text x="86" y="226.0" text-anchor="end" class="small">4</text><line x1="100" y1="160.0" x2="1050" y2="160.0" class="grid"/><text x="86" y="164.0" text-anchor="end" class="small">5</text><line x1="110" y1="470" x2="1050" y2="470" class="axis"/><rect x="110" y="222.0" width="30" height="248.0" fill="#c7785a" rx="3"/><text x="125" y="214.0" text-anchor="middle" class="small">4</text><rect x="148" y="284.0" width="30" height="186.0" fill="#d8a85f" rx="3"/><text x="163" y="276.0" text-anchor="middle" class="small">3</text><rect x="186" y="284.0" width="30" height="186.0" fill="#7ca982" rx="3"/><text x="201" y="276.0" text-anchor="middle" class="small">3</text><text x="148" y="498" text-anchor="middle" class="label">S1</text><text x="148" y="516" text-anchor="middle" class="small">heat 3.4</text><rect x="295" y="222.0" width="30" height="248.0" fill="#c7785a" rx="3"/><text x="310" y="214.0" text-anchor="middle" class="small">4</text><rect x="333" y="222.0" width="30" height="248.0" fill="#d8a85f" rx="3"/><text x="348" y="214.0" text-anchor="middle" class="small">4</text><rect x="371" y="284.0" width="30" height="186.0" fill="#7ca982" rx="3"/><text x="386" y="276.0" text-anchor="middle" class="small">3</text><text x="333" y="498" text-anchor="middle" class="label">S2</text><text x="333" y="516" text-anchor="middle" class="small">heat 3.8</text><rect x="480" y="160.0" width="30" height="310.0" fill="#c7785a" rx="3"/><text x="495" y="152.0" text-anchor="middle" class="small">5</text><rect x="518" y="222.0" width="30" height="248.0" fill="#d8a85f" rx="3"/><text x="533" y="214.0" text-anchor="middle" class="small">4</text><rect x="556" y="222.0" width="30" height="248.0" fill="#7ca982" rx="3"/><text x="571" y="214.0" text-anchor="middle" class="small">4</text><text x="518" y="498" text-anchor="middle" class="label">S3</text><text x="518" y="516" text-anchor="middle" class="small">heat 4.4</text><rect x="665" y="222.0" width="30" height="248.0" fill="#c7785a" rx="3"/><text x="680" y="214.0" text-anchor="middle" class="small">4</text><rect x="703" y="284.0" width="30" height="186.0" fill="#d8a85f" rx="3"/><text x="718" y="276.0" text-anchor="middle" class="small">3</text><rect x="741" y="284.0" width="30" height="186.0" fill="#7ca982" rx="3"/><text x="756" y="276.0" text-anchor="middle" class="small">3</text><text x="703" y="498" text-anchor="middle" class="label">S4</text><text x="703" y="516" text-anchor="middle" class="small">heat 3.4</text><rect x="850" y="160.0" width="30" height="310.0" fill="#c7785a" rx="3"/><text x="865" y="152.0" text-anchor="middle" class="small">5</text><rect x="888" y="222.0" width="30" height="248.0" fill="#d8a85f" rx="3"/><text x="903" y="214.0" text-anchor="middle" class="small">4</text><rect x="926" y="222.0" width="30" height="248.0" fill="#7ca982" rx="3"/><text x="941" y="214.0" text-anchor="middle" class="small">4</text><text x="888" y="498" text-anchor="middle" class="label">S5</text><text x="888" y="516" text-anchor="middle" class="small">heat 4.4</text><rect x="740" y="95" width="18" height="18" fill="#c7785a" rx="3"/><text x="764" y="109" class="small">不透水面</text><rect x="860" y="95" width="18" height="18" fill="#d8a85f" rx="3"/><text x="884" y="109" class="small">缺少遮阴</text><rect x="980" y="95" width="18" height="18" fill="#7ca982" rx="3"/><text x="1004" y="109" class="small">低植被活性</text><text x="110" y="565" class="note">S1-S5 对应 0-500m 五个线性分段；分数为远程资料初判，需由遥感/现场复核。</text>
</svg>
