<svg xmlns="http://www.w3.org/2000/svg" width="1180" height="600" viewBox="0 0 1180 600">
<rect width="100%" height="100%" fill="#fbfaf7"/>
<style>
text { font-family: "Noto Sans CJK SC", "Microsoft YaHei", "PingFang SC", Arial, sans-serif; fill: #263238; }
.title { font-size: 24px; font-weight: 700; }
.subtitle { font-size: 13px; fill: #607d72; }
.axis { stroke: #607d72; stroke-width: 1; }
.grid { stroke: #d8ded8; stroke-width: 1; stroke-dasharray: 3 4; }
.label { font-size: 12px; }
.small { font-size: 10px; fill: #607d72; }
.note { font-size: 11px; fill: #789087; }
</style>

<text x="48" y="48" class="title">季节水位风险与可使用性关系</text>
<text x="48" y="72" class="subtitle">无日水位序列时使用低/常/高水位季的定性曲线；后续可替换为 Lazio 水文数据。</text>
<line x1="90" y1="470.0" x2="1070" y2="470.0" class="grid"/><text x="74" y="474.0" text-anchor="end" class="small">0%</text><line x1="90" y1="406.0" x2="1070" y2="406.0" class="grid"/><text x="74" y="410.0" text-anchor="end" class="small">20%</text><line x1="90" y1="342.0" x2="1070" y2="342.0" class="grid"/><text x="74" y="346.0" text-anchor="end" class="small">40%</text><line x1="90" y1="278.0" x2="1070" y2="278.0" class="grid"/><text x="74" y="282.0" text-anchor="end" class="small">60%</text><line x1="90" y1="214.0" x2="1070" y2="214.0" class="grid"/><text x="74" y="218.0" text-anchor="end" class="small">80%</text><line x1="90" y1="150.0" x2="1070" y2="150.0" class="grid"/><text x="74" y="154.0" text-anchor="end" class="small">100%</text><text x="90.0" y="498" text-anchor="middle" class="small">Jan</text><text x="179.0909090909091" y="498" text-anchor="middle" class="small">Feb</text><text x="268.1818181818182" y="498" text-anchor="middle" class="small">Mar</text><text x="357.27272727272725" y="498" text-anchor="middle" class="small">Apr</text><text x="446.3636363636364" y="498" text-anchor="middle" class="small">May</text><text x="535.4545454545455" y="498" text-anchor="middle" class="small">Jun</text><text x="624.5454545454545" y="498" text-anchor="middle" class="small">Jul</text><text x="713.6363636363636" y="498" text-anchor="middle" class="small">Aug</text><text x="802.7272727272727" y="498" text-anchor="middle" class="small">Sep</text><text x="891.8181818181819" y="498" text-anchor="middle" class="small">Oct</text><text x="980.9090909090909" y="498" text-anchor="middle" class="small">Nov</text><text x="1070.0" y="498" text-anchor="middle" class="small">Dec</text><polyline points="90.0,326.0 179.1,310.0 268.2,262.0 357.3,214.0 446.4,198.0 535.5,182.0 624.5,175.6 713.6,182.0 802.7,207.6 891.8,246.0 980.9,294.0 1070.0,326.0" fill="none" stroke="#5c8a99" stroke-width="4" stroke-linejoin="round" stroke-linecap="round"/><polyline points="90.0,214.0 179.1,214.0 268.2,278.0 357.3,342.0 446.4,342.0 535.5,406.0 624.5,406.0 713.6,406.0 802.7,342.0 891.8,278.0 980.9,214.0 1070.0,214.0" fill="none" stroke="#b95850" stroke-width="3" stroke-linejoin="round" stroke-linecap="round"/><circle cx="90.0" cy="326.0" r="5" fill="#5c8a99"/><circle cx="179.0909090909091" cy="310.0" r="5" fill="#5c8a99"/><circle cx="268.1818181818182" cy="262.0" r="5" fill="#5c8a99"/><circle cx="357.27272727272725" cy="214.0" r="5" fill="#5c8a99"/><circle cx="446.3636363636364" cy="198.0" r="5" fill="#5c8a99"/><circle cx="535.4545454545455" cy="182.0" r="5" fill="#5c8a99"/><circle cx="624.5454545454545" cy="175.59999999999997" r="5" fill="#5c8a99"/><circle cx="713.6363636363636" cy="182.0" r="5" fill="#5c8a99"/><circle cx="802.7272727272727" cy="207.60000000000002" r="5" fill="#5c8a99"/><circle cx="891.8181818181819" cy="246.0" r="5" fill="#5c8a99"/><circle cx="980.9090909090909" cy="294.0" r="5" fill="#5c8a99"/><circle cx="1070.0" cy="326.0" r="5" fill="#5c8a99"/><circle cx="90.0" cy="214.0" r="4" fill="#b95850"/><circle cx="179.0909090909091" cy="214.0" r="4" fill="#b95850"/><circle cx="268.1818181818182" cy="278.0" r="4" fill="#b95850"/><circle cx="357.27272727272725" cy="342.0" r="4" fill="#b95850"/><circle cx="446.3636363636364" cy="342.0" r="4" fill="#b95850"/><circle cx="535.4545454545455" cy="406.0" r="4" fill="#b95850"/><circle cx="624.5454545454545" cy="406.0" r="4" fill="#b95850"/><circle cx="713.6363636363636" cy="406.0" r="4" fill="#b95850"/><circle cx="802.7272727272727" cy="342.0" r="4" fill="#b95850"/><circle cx="891.8181818181819" cy="278.0" r="4" fill="#b95850"/><circle cx="980.9090909090909" cy="214.0" r="4" fill="#b95850"/><circle cx="1070.0" cy="214.0" r="4" fill="#b95850"/><rect x="760" y="105" width="18" height="4" fill="#5c8a99"/><text x="790" y="112" class="small">下层河岸可使用性</text><rect x="760" y="132" width="18" height="4" fill="#b95850"/><text x="790" y="139" class="small">相对水位/洪水风险</text><text x="90" y="555" class="note">该图用于空间分区判断：常年可用、季节性可用、可淹没、不可介入。</text>
</svg>
